<?xml version="1.0" encoding="UTF-8"?>
<svg id="Layer_2" data-name="Layer 2" xmlns="http://www.w3.org/2000/svg" viewBox="0 0 623.58 623.58">
  <g id="Layer_1-2" data-name="Layer 1">
    <g>
      <path fill="#ff5703" d="M623.58,623.58H0V0H623.58V623.58ZM36.5,587.09H587.09V36.5H36.5V587.09Z"/>
      <g>
        <path fill="#ff5703" d="M131.16,422.89l68.65-233.27c2.73-8.45,8.48-12.68,17.24-12.68s13.82,3.59,16,10.75l67.98,236.83c.54,1.76,.81,3.45,.81,5.07,0,4.74-1.62,8.76-4.87,12.07-3.25,3.32-6.96,4.97-11.16,4.97-8.92,0-14.6-4.13-17.04-12.38l-13.48-46.27h-78.07l-14.85,49.56c-.41,2.16-2.11,4.21-5.1,6.16-2.99,1.95-6.26,2.93-9.79,2.93-5.03,0-9.18-1.69-12.44-5.07-3.27-3.38-4.9-7.51-4.9-12.38,0-2.03,.34-4.13,1.01-6.3Zm85.64-167.01l-29.24,97.61h57.68l-28.44-97.61Z"/>
        <path fill="#ff5703" d="M493.43,314.94v41.19c0,4.6-1.69,8.59-5.07,11.97-3.38,3.38-7.38,5.07-11.97,5.07h-120.54v9.94c0,5.82,2.5,10.76,7.51,14.81l9.94,8.32c5.41,4.19,10.55,6.29,15.42,6.29h87.67c4.6,0,8.59,1.66,11.97,4.97,3.38,3.32,5.07,7.34,5.07,12.07s-1.73,8.59-5.17,11.97c-3.45,3.38-7.41,5.07-11.87,5.07h-89.9c-5.95,0-12.21-1.25-18.77-3.75-6.56-2.5-11.4-5.11-14.51-7.81l-15.22-13.4c-4.74-3.78-8.69-9.06-11.87-15.83-3.18-6.76-4.77-12.99-4.77-18.67v-78.13c0-4.46,1.72-10.48,5.17-18.06,3.45-7.58,7.81-13.46,13.09-17.65l14.21-11.16c9.33-7.57,19.68-11.36,31.05-11.36h47.89c12.04,0,23.4,5.01,34.09,15.02l12.78,12.18c9.2,8.25,13.8,20.57,13.8,36.93Zm-137.18-2.64v26.38h103.5v-23.74c0-6.36-1.96-11.23-5.89-14.61l-9.94-8.73c-5.14-4.19-9.74-6.29-13.8-6.29h-42.82c-5.28,0-10.08,1.83-14.41,5.48l-9.94,8.32c-4.46,3.38-6.7,7.78-6.7,13.19Z"/>
      </g>
    </g>
  </g>
</svg>