<?xml version="1.0" encoding="UTF-8"?>
<svg id="Layer_2" data-name="Layer 2" xmlns="http://www.w3.org/2000/svg" viewBox="0 0 623.58 623.58">
  <g id="Layer_1-2" data-name="Layer 1">
    <g>
      <path fill="#ff5703" d="M623.58,623.58H0V0H623.58V623.58ZM36.5,587.09H587.09V36.5H36.5V587.09Z"/>
      <g>
        <path fill="#ff5703" d="M131.06,422.89l68.64-233.27c2.73-8.45,8.48-12.68,17.24-12.68s13.82,3.59,16,10.75l67.98,236.83c.54,1.76,.81,3.45,.81,5.07,0,4.74-1.63,8.76-4.87,12.07-3.25,3.32-6.96,4.97-11.15,4.97-8.93,0-14.6-4.13-17.04-12.38l-13.48-46.27h-78.06l-14.85,49.56c-.41,2.16-2.11,4.21-5.1,6.16-2.99,1.95-6.26,2.93-9.79,2.93-5.03,0-9.18-1.69-12.44-5.07-3.27-3.38-4.9-7.51-4.9-12.38,0-2.03,.34-4.13,1.01-6.3Zm85.64-167.01l-29.24,97.61h57.68l-28.44-97.61Z"/>
        <path fill="#ff5703" d="M402.31,290.38l-46.57,30.24v108.97c0,4.6-1.69,8.59-5.07,11.97-3.38,3.38-7.38,5.07-11.97,5.07s-8.59-1.69-11.97-5.07c-3.38-3.38-5.07-7.37-5.07-11.97v-161.74c0-4.73,1.66-8.83,4.97-12.28,3.31-3.45,7.34-5.17,12.07-5.17s8.59,1.72,11.97,5.17c3.38,3.45,5.07,7.54,5.07,12.28v11.36l31.11-18.87c10.43-6.63,22.22-9.94,35.36-9.94h15.85c13.55,0,25.27,4.8,35.16,14.41,9.89,9.61,15.1,21.44,15.65,35.51l4.67,129.27c.13,4.6-1.49,8.59-4.87,11.97-3.38,3.38-7.44,5.07-12.17,5.07-4.46,0-8.39-1.52-11.77-4.57-3.39-3.04-5.15-7.2-5.28-12.48l-5.07-127.24c-.41-11.9-6.64-17.86-18.71-17.86h-16.68c-5.15,0-10.71,1.96-16.67,5.89Z"/>
      </g>
    </g>
  </g>
</svg>