<?xml version="1.0" encoding="UTF-8"?>
<svg id="Layer_2" data-name="Layer 2" xmlns="http://www.w3.org/2000/svg" viewBox="0 0 623.58 623.59">
  <g id="Layer_1-2" data-name="Layer 1">
    <g>
      <path fill="#ff5703" d="M623.58,623.59H0V0H623.58V623.59ZM36.5,587.09H587.09V36.5H36.5V587.09Z"/>
      <g>
        <path fill="#ff5703" d="M130.76,422.89l68.65-233.27c2.73-8.45,8.48-12.68,17.24-12.68s13.82,3.59,16,10.75l67.98,236.83c.54,1.76,.81,3.45,.81,5.07,0,4.74-1.62,8.76-4.87,12.07-3.25,3.32-6.96,4.97-11.16,4.97-8.93,0-14.6-4.13-17.04-12.38l-13.48-46.27h-78.07l-14.85,49.56c-.41,2.16-2.11,4.21-5.1,6.16-2.99,1.95-6.26,2.93-9.79,2.93-5.03,0-9.18-1.69-12.44-5.07-3.27-3.38-4.9-7.51-4.9-12.38,0-2.03,.34-4.13,1.01-6.3Zm85.64-167.01l-29.24,97.61h57.68l-28.44-97.61Z"/>
        <path fill="#ff5703" d="M402.43,412.14l57.31-36.53v-107.76c0-4.73,1.66-8.83,4.97-12.28,3.31-3.45,7.34-5.18,12.08-5.18s8.76,1.72,12.07,5.18c3.31,3.45,4.97,7.54,4.97,12.28v161.74c0,4.6-1.69,8.59-5.07,11.97-3.38,3.38-7.38,5.07-11.97,5.07s-8.59-1.69-11.97-5.07c-3.38-3.38-5.07-7.37-5.07-11.97v-13.39l-29.58,19.28c-11.62,7.44-23.37,11.16-35.26,11.16h-15.8c-13.91,0-25.87-4.87-35.87-14.61-9.99-9.74-15.33-21.64-16.01-35.72l-5.07-128.46c-.27-4.46,1.32-8.42,4.77-11.87,3.45-3.45,7.54-5.18,12.28-5.18s8.56,1.69,11.87,5.07c3.31,3.38,5.04,7.38,5.17,11.97l4.67,126.02c.41,12.18,7.36,18.26,20.86,18.26h20.66Z"/>
      </g>
    </g>
  </g>
</svg>