<?xml version="1.0" encoding="UTF-8"?>
<svg id="Layer_2" data-name="Layer 2" xmlns="http://www.w3.org/2000/svg" viewBox="0 0 623.58 623.58">
  <g id="Layer_1-2" data-name="Layer 1">
    <g>
      <path fill="#ff5703" d="M623.58,623.58H0V0H623.58V623.58ZM36.5,587.09H587.09V36.5H36.5V587.09Z"/>
      <g>
        <path fill="#ff5703" d="M139.68,430.4l68.65-233.27c2.73-8.45,8.48-12.68,17.24-12.68s13.82,3.59,16,10.75l67.98,236.83c.54,1.76,.81,3.45,.81,5.07,0,4.74-1.62,8.76-4.87,12.07-3.25,3.32-6.96,4.97-11.16,4.97-8.93,0-14.6-4.13-17.04-12.38l-13.48-46.27h-78.07l-14.85,49.56c-.41,2.16-2.11,4.21-5.1,6.16-2.99,1.95-6.26,2.93-9.79,2.93-5.03,0-9.18-1.69-12.44-5.07-3.27-3.38-4.9-7.51-4.9-12.38,0-2.03,.34-4.13,1.01-6.3Zm85.64-167.01l-29.24,97.61h57.68l-28.44-97.61Z"/>
        <path fill="#ff5703" d="M467.86,453.75h-103.9c-4.74,0-8.76-1.66-12.07-4.97-3.32-3.31-4.97-7.34-4.97-12.07s1.66-8.59,4.97-11.97c3.31-3.38,7.34-5.07,12.07-5.07h34.9v-127.24h-34.5c-4.74,0-8.76-1.69-12.07-5.07-3.32-3.38-4.97-7.37-4.97-11.97s1.66-8.83,4.97-12.28c3.31-3.45,7.34-5.18,12.07-5.18h51.95c4.73,0,8.76,1.72,12.08,5.18,3.31,3.45,4.97,7.54,4.97,12.28v144.29h34.09c4.73,0,8.83,1.66,12.28,4.97,3.45,3.31,5.17,7.34,5.17,12.07s-1.69,8.76-5.07,12.07c-3.38,3.32-7.38,4.97-11.97,4.97Zm-69.4-284.31h17.86c4.73,0,8.76,1.66,12.08,4.97,3.31,3.32,4.97,7.34,4.97,12.07v14.61c0,4.74-1.66,8.83-4.97,12.28-3.32,3.45-7.34,5.17-12.08,5.17h-18.26c-4.87,0-8.96-1.76-12.28-5.28-3.32-3.52-4.91-7.44-4.77-11.77l.41-15.02c0-4.73,1.66-8.76,4.97-12.07,3.31-3.31,7.34-4.97,12.08-4.97Z"/>
      </g>
    </g>
  </g>
</svg>