<?xml version="1.0" encoding="UTF-8"?><svg id="Layer_2" data-name="Layer 2" xmlns="http://www.w3.org/2000/svg" viewBox="0 0 623.59 623.59"><g id="Layer_1-2" data-name="Layer 1"><g><path fill="#ff5703" d="M623.59,623.59H0V0H623.59V623.59ZM36.5,587.09H587.09V36.5H36.5V587.09Z"/><g>    <path fill="#ff5703" d="M129.95,429.6V176.94h120.95c13.93,0,25.94,5.07,36.02,15.22,10.08,10.15,15.12,22.26,15.12,36.33v63.92c0,14.07-5.01,26.11-15.02,36.12-10.01,10.01-22.05,15.02-36.12,15.02h-86.45v86.04c0,4.74-1.66,8.76-4.97,12.07-3.32,3.32-7.34,4.97-12.07,4.97s-9-1.66-12.38-4.97c-3.38-3.31-5.07-7.34-5.07-12.07Zm34.5-120.14h86.45c4.6,0,8.59-1.66,11.97-4.97,3.38-3.31,5.07-7.34,5.07-12.07v-63.92c0-4.74-1.69-8.76-5.07-12.08-3.38-3.31-7.37-4.97-11.97-4.97h-86.45v98.02Z"/><path fill="#ff5703" d="M369.24,250.81h78.13c12.18,0,22.93,3.62,32.27,10.86s14,14.31,14,21.21c0,4.87-1.72,8.86-5.17,11.97-3.45,3.11-7.27,4.67-11.46,4.67-5.41,0-10.35-2.43-14.81-7.31-4.47-4.87-9.13-7.3-14-7.3h-77.11c-7.58,0-11.36,3.15-11.36,9.46,0,4.43,2.53,7.78,7.59,10.06l90.64,40.35c9.2,4.06,16.74,10.59,22.63,19.58,5.88,9,8.83,18.97,8.83,29.93,0,14.61-5.17,26.99-15.52,37.14-10.35,10.15-22.09,15.22-35.21,15.22h-69c-11.91,0-22.97-3.58-33.18-10.76-10.22-7.17-15.32-14.13-15.32-20.9,0-4.46,1.66-8.42,4.97-11.87,3.31-3.45,7.61-5.17,12.89-5.17,4.33,0,8.96,2.43,13.9,7.31,4.94,4.87,12.07,7.3,21.41,7.3h63.52c5,0,9.2-1.93,12.58-5.78,3.38-3.86,5.07-8.28,5.07-13.29,0-7.71-3.79-13.26-11.36-16.64l-91.52-41.19c-8.8-3.92-15.56-9.61-20.29-17.05-4.74-7.44-7.1-15.02-7.1-22.73,0-12.18,4.23-22.73,12.68-31.66,8.45-8.93,18.9-13.39,31.35-13.39Z"/></g></g></g></svg>