<?xml version="1.0" encoding="UTF-8"?>
<svg id="Layer_2" data-name="Layer 2" xmlns="http://www.w3.org/2000/svg" viewBox="0 0 623.59 623.58">
  <g id="Layer_1-2" data-name="Layer 1">
    <g>
      <path fill="#ff5703" d="M623.59,623.58H0V0H623.59V623.58ZM36.5,587.09H587.09V36.5H36.5V587.09Z"/>
      <g>
        <path fill="#ff5703" d="M130.15,429.6V176.94h120.95c13.93,0,25.94,5.07,36.02,15.22,10.08,10.15,15.12,22.26,15.12,36.33v63.92c0,14.07-5.01,26.11-15.02,36.12-10.01,10.01-22.05,15.02-36.12,15.02h-86.45v86.04c0,4.74-1.66,8.76-4.97,12.07-3.31,3.32-7.34,4.97-12.07,4.97s-9-1.66-12.38-4.97c-3.38-3.31-5.07-7.34-5.07-12.07Zm34.5-120.14h86.45c4.6,0,8.59-1.66,11.97-4.97,3.38-3.31,5.07-7.34,5.07-12.07v-63.92c0-4.74-1.69-8.76-5.07-12.08-3.38-3.31-7.37-4.97-11.97-4.97h-86.45v98.02Z"/>
        <path fill="#ff5703" d="M321.75,429.6v-161.74c0-4.73,1.66-8.83,4.97-12.28,3.31-3.45,7.34-5.17,12.07-5.17s8.76,1.69,12.08,5.07c3.31,3.38,4.97,7.51,4.97,12.38v21.31l27.8-23.74c11.5-9.74,22.73-14.61,33.69-14.61h24.96c14.07,0,26.11,5.01,36.12,15.02,10.01,10.01,15.02,22.05,15.02,36.12v9.13c0,4.87-1.66,9-4.97,12.38-3.32,3.38-7.34,5.07-12.07,5.07s-8.76-1.66-12.07-4.97c-3.32-3.31-4.97-7.34-4.97-12.07v-9.54c0-4.73-1.66-8.76-4.97-12.07-3.32-3.31-7.34-4.97-12.07-4.97h-22.12c-4.74,0-10.01,2.5-15.83,7.51l-48.5,42.01v95.18c0,4.74-1.69,8.76-5.07,12.07-3.38,3.32-7.38,4.97-11.97,4.97s-8.76-1.66-12.07-4.97c-3.32-3.31-4.97-7.34-4.97-12.07Z"/>
      </g>
    </g>
  </g>
</svg>